<?xml version="1.0" encoding="UTF-8"?>
<svg version="1.1" xmlns="http://www.w3.org/2000/svg" width="48" height="48">
<path d="M0 0 C4.17292905 2.46720622 7.19873554 5.46317035 9 10 C9.70077817 14.93804153 9.55558401 18.88883198 7.3125 23.375 C4.53604336 26.52665348 1.77376371 29.11311814 -2 31 C-4.99005469 31.07066599 -7.96694229 30.99693034 -10.95703125 30.9375 C-13.77780848 30.99543637 -16.24697692 31.44642983 -19 32 C-20.54372132 30.45627868 -20.56721198 28.67572274 -21 26.5625 C-21.49428781 24.15670855 -21.90042123 22.19915754 -23 20 C-23.54035594 15.0747885 -23.54435469 11.13058282 -21.375 6.625 C-15.13523588 -0.2715814 -8.88856297 -2.20867322 0 0 Z M-14 8 C-16.51464223 11.01757067 -16.99187106 12.54477949 -17.0625 16.5 C-15.97816536 20.07192589 -14.85535394 21.90571232 -11.81640625 24.1171875 C-8.32772466 25.81276178 -5.83729773 25.55702709 -2 25 C0.50520579 23.16658535 0.50520579 23.16658535 2 21 C0.906875 20.773125 -0.18625 20.54625 -1.3125 20.3125 C-5 19 -5 19 -7 16.75 C-8.23712563 13.34790453 -7.97740692 11.4585168 -7 8 C-6.34 7.01 -5.68 6.02 -5 5 C-9.36087656 5 -10.58673752 5.46193303 -14 8 Z M-1 9 C-2.485 10.98 -2.485 10.98 -4 13 C-2.68 13.99 -1.36 14.98 0 16 C0.99 14.68 1.98 13.36 3 12 C1.68 11.01 0.36 10.02 -1 9 Z " fill="#4C2A84" transform="translate(31,8)"/>
</svg>
